# xmcd
#
# Track frame offsets: 
#        150
#        17860
#        37407
#        54170
#        73550
#        94060
#        116322
#        136225
#        154762
#        174642
#        193727
#
# Disc length: 2732 seconds
#
# Revision: 8
# Processed by: cddbd v1.5.2PL0 Copyright (c) Steve Scherf et al.
# Submitted via: ExactAudioCopy v1.0b3
#
DISCID=930aaa0b
DTITLE=Jimmie Vaughan - Strange Pleasure
DYEAR=1994
DGENRE=Blues
TTITLE0=Boom-Bapa-Boom
TTITLE1=Don't Cha Know
TTITLE2=Hey-Yeah
TTITLE3=Flamenco Dancer
TTITLE4=(Everybody's Got) Sweet Soul Vibe
TTITLE5=Tilt A Whirl
TTITLE6=Six Strings Down
TTITLE7=Just Like Putty
TTITLE8=Two Wings
TTITLE9=Love The World
TTITLE10=Strange Pleasure (Modern Backporch Duende)
EXTD=YEAR: 1994
EXTT0=
EXTT1=
EXTT2=
EXTT3=
EXTT4=
EXTT5=
EXTT6=
EXTT7=
EXTT8=
EXTT9=
EXTT10=
PLAYORDER=
